<svg width="28" height="28" viewBox="0 0 28 28" fill="none" xmlns="http://www.w3.org/2000/svg">
<circle cx="14" cy="14" r="14" fill="#D6F6D9"/>
<path fill-rule="evenodd" clip-rule="evenodd" d="M14.0003 19.5887C18.0235 19.5887 21.2848 16.8166 21.2848 13.3969C21.2848 9.97726 18.0235 7.20508 14.0003 7.20508C9.97721 7.20508 6.71582 9.97726 6.71582 13.3969C6.71582 15.1079 7.53226 16.6568 8.85206 17.7775L8.59262 20.7953L11.4094 19.1857C12.2144 19.4461 13.0878 19.5887 14.0003 19.5887Z" fill="#9ED8A4"/>
<path d="M8.85206 17.7775L9.5993 17.8417C9.62009 17.5998 9.52254 17.3629 9.33751 17.2058L8.85206 17.7775ZM8.59262 20.7953L7.84537 20.731C7.82148 21.0089 7.95373 21.277 8.18871 21.4272C8.42369 21.5774 8.72259 21.5848 8.96472 21.4465L8.59262 20.7953ZM11.4094 19.1857L11.6403 18.4721C11.4395 18.4071 11.2206 18.4298 11.0373 18.5345L11.4094 19.1857ZM20.5348 13.3969C20.5348 16.2927 17.7282 18.8387 14.0003 18.8387V20.3387C18.3188 20.3387 22.0348 17.3404 22.0348 13.3969H20.5348ZM14.0003 7.95508C17.7282 7.95508 20.5348 10.5011 20.5348 13.3969H22.0348C22.0348 9.45338 18.3188 6.45508 14.0003 6.45508V7.95508ZM7.46582 13.3969C7.46582 10.5011 10.2725 7.95508 14.0003 7.95508V6.45508C9.68191 6.45508 5.96582 9.45338 5.96582 13.3969H7.46582ZM9.33751 17.2058C8.16075 16.2065 7.46582 14.8572 7.46582 13.3969H5.96582C5.96582 15.3586 6.90377 17.107 8.36661 18.3492L9.33751 17.2058ZM9.33986 20.8595L9.5993 17.8417L8.10482 17.7132L7.84537 20.731L9.33986 20.8595ZM11.0373 18.5345L8.22051 20.1441L8.96472 21.4465L11.7815 19.8368L11.0373 18.5345ZM14.0003 18.8387C13.166 18.8387 12.3705 18.7083 11.6403 18.4721L11.1786 19.8992C12.0583 20.1839 13.0096 20.3387 14.0003 20.3387V18.8387Z" fill="#52A95B"/>
</svg>
