<svg width="28" height="28" viewBox="0 0 28 28" fill="none" xmlns="http://www.w3.org/2000/svg">
<circle cx="14" cy="14" r="14" fill="#FFE5E5"/>
<path d="M14.8151 12.1375C14.5787 11.9644 14.2933 11.8711 14.0004 11.8711C13.7074 11.8711 13.422 11.9644 13.1856 12.1375C11.4889 13.3802 7.77925 16.4914 8.29122 19.6175C8.81766 22.8286 12.8731 22.9452 14.0004 21.1176C15.1281 22.9464 19.1835 22.8286 19.7099 19.6175C20.2236 16.4914 16.5118 13.3802 14.8151 12.1375Z" fill="#FEC2C2" stroke="#FF7676" stroke-width="1.5"/>
<path d="M8.24298 13.4928C9.35851 13.4928 10.2628 12.4646 10.2628 11.1961C10.2628 9.92768 9.35851 8.89941 8.24298 8.89941C7.12746 8.89941 6.22314 9.92768 6.22314 11.1961C6.22314 12.4646 7.12746 13.4928 8.24298 13.4928Z" fill="#FEC2C2" stroke="#FF7676" stroke-width="1.5"/>
<path d="M13.9998 9.83462C15.1153 9.83462 16.0197 8.80635 16.0197 7.53791C16.0197 6.26948 15.1153 5.24121 13.9998 5.24121C12.8843 5.24121 11.98 6.26948 11.98 7.53791C11.98 8.80635 12.8843 9.83462 13.9998 9.83462Z" fill="#FEC2C2" stroke="#FF7676" stroke-width="1.5"/>
<path d="M20.117 13.4928C21.2325 13.4928 22.1368 12.4646 22.1368 11.1961C22.1368 9.92768 21.2325 8.89941 20.117 8.89941C19.0015 8.89941 18.0972 9.92768 18.0972 11.1961C18.0972 12.4646 19.0015 13.4928 20.117 13.4928Z" fill="#FEC2C2" stroke="#FF7676" stroke-width="1.5"/>
</svg>
