<svg width="140" height="140" viewBox="0 0 140 140" fill="none" xmlns="http://www.w3.org/2000/svg">
<path d="M140 70C140 108.66 108.66 140 70 140C31.3401 140 0 108.66 0 70C0 31.3401 31.3401 0 70 0C108.66 0 140 31.3401 140 70Z" fill="#F7F8FA"/>
<path d="M47.5665 92.6H54.0345V93.884H47.5665V92.6ZM50.7945 94.496C52.3185 94.496 53.4585 95.612 53.4585 97.148C53.4585 98.672 52.3185 99.8 50.7945 99.8C49.2825 99.8 48.1305 98.672 48.1305 97.148C48.1305 95.612 49.2825 94.496 50.7945 94.496ZM50.7945 95.828C50.1225 95.828 49.6065 96.32 49.6065 97.148C49.6065 97.976 50.1225 98.456 50.7945 98.456C51.4785 98.456 51.9945 97.976 51.9945 97.148C51.9945 96.32 51.4785 95.828 50.7945 95.828ZM50.0025 91.136H51.5985V93.236H50.0025V91.136ZM55.2825 90.956H56.8665V102.068H55.2825V90.956ZM53.8185 95.324H56.5665V96.62H53.8185V95.324ZM62.1816 91.4C63.8736 91.4 65.0976 92.372 65.0976 93.776C65.0976 95.156 63.8736 96.152 62.1816 96.152C60.5016 96.152 59.2776 95.156 59.2776 93.776C59.2776 92.372 60.5016 91.4 62.1816 91.4ZM62.1816 92.696C61.3776 92.696 60.8016 93.08 60.8016 93.776C60.8016 94.46 61.3776 94.844 62.1816 94.844C62.9976 94.844 63.5736 94.46 63.5736 93.776C63.5736 93.08 62.9976 92.696 62.1816 92.696ZM61.4376 97.256H63.0336V101.732H61.4376V97.256ZM66.2976 90.956H67.8816V102.068H66.2976V90.956ZM58.8096 98.096L58.6176 96.8C60.5616 96.8 63.3096 96.776 65.6616 96.416L65.7696 97.58C63.3576 98.06 60.7296 98.084 58.8096 98.096ZM74.8354 91.808H76.1314V93.428C76.1314 96.176 75.1714 98.756 73.0714 99.788L72.1114 98.504C73.9834 97.628 74.8354 95.492 74.8354 93.428V91.808ZM75.1594 91.808H76.4314V93.428C76.4314 95.42 77.2234 97.448 78.9994 98.312L78.0394 99.584C76.0354 98.564 75.1594 96.092 75.1594 93.428V91.808ZM79.4434 90.956H81.0514V102.068H79.4434V90.956ZM80.6914 95.228H82.6594V96.56H80.6914V95.228ZM91.0104 90.956H92.6184V96.572H91.0104V90.956ZM85.2024 97.064H92.6184V100.076H86.7864V101.192H85.2264V98.924H91.0344V98.276H85.2024V97.064ZM85.2264 100.76H92.8944V101.996H85.2264V100.76ZM85.9824 91.208H87.3024V92.048C87.3024 94.1 86.2704 95.96 84.0984 96.62L83.3304 95.36C85.1904 94.796 85.9824 93.404 85.9824 92.048V91.208ZM86.3064 91.208H87.6144V92.048C87.6144 93.368 88.3944 94.664 90.2064 95.18L89.4384 96.416C87.3024 95.792 86.3064 94.052 86.3064 92.048V91.208ZM51.3739 108.096H52.6819V108.792C52.6819 110.892 51.6859 112.776 49.5619 113.46L48.7339 112.224C50.5939 111.624 51.3739 110.184 51.3739 108.792V108.096ZM51.6979 108.096H52.9939V108.792C52.9939 110.1 53.7499 111.456 55.5499 112.032L54.7339 113.268C52.6579 112.596 51.6979 110.784 51.6979 108.792V108.096ZM49.1659 107.604H55.1659V108.876H49.1659V107.604ZM56.0539 106.956H57.6499V113.652H56.0539V106.956ZM57.2059 109.644H59.1259V110.952H57.2059V109.644ZM50.2339 114.132H57.6499V118.068H56.0539V115.416H50.2339V114.132ZM62.5209 107.532H63.8529V108.528C63.8529 110.76 62.8569 112.716 60.6729 113.448L59.8449 112.164C61.7409 111.552 62.5209 110.052 62.5209 108.528V107.532ZM62.8569 107.532H64.1409V108.456C64.1409 109.932 64.8609 111.3 66.6249 111.864L65.7969 113.112C63.7449 112.404 62.8569 110.616 62.8569 108.456V107.532ZM67.6449 106.956H69.2409V113.46H67.6449V106.956ZM65.4729 113.748C67.8249 113.748 69.2769 114.552 69.2769 115.908C69.2769 117.276 67.8249 118.068 65.4729 118.068C63.1209 118.068 61.6689 117.276 61.6689 115.908C61.6689 114.552 63.1209 113.748 65.4729 113.748ZM65.4729 114.984C64.0329 114.984 63.2649 115.284 63.2649 115.908C63.2649 116.532 64.0329 116.844 65.4729 116.844C66.9249 116.844 67.6929 116.532 67.6929 115.908C67.6929 115.284 66.9249 114.984 65.4729 114.984ZM65.6169 108.972H67.8729V110.268H65.6169V108.972ZM72.216 107.448H79.26V108.72H72.216V107.448ZM70.992 111.444H81.048V112.716H70.992V111.444ZM78.3 107.448H79.872V108.336C79.872 109.296 79.872 110.328 79.536 111.768L77.952 111.744C78.3 110.304 78.3 109.284 78.3 108.336V107.448ZM72.168 113.88H79.824V117.948H72.168V113.88ZM78.252 115.116H73.728V116.688H78.252V115.116ZM84.6951 108.708H85.9671V109.956C85.9671 112.524 84.9231 115.032 82.8351 115.98L81.9351 114.72C83.7951 113.892 84.6951 111.84 84.6951 109.956V108.708ZM85.0551 108.708H86.3151V109.956C86.3151 111.756 87.2031 113.676 89.0631 114.444L88.1991 115.704C86.0871 114.792 85.0551 112.428 85.0551 109.956V108.708ZM82.3791 108.024H88.6071V109.332H82.3791V108.024ZM89.6391 106.956H91.2471V118.068H89.6391V106.956Z" fill="#6F6F6F"/>
<circle cx="70" cy="57" r="25" stroke="#C1C1C1" stroke-width="4"/>
<rect x="91.332" y="41.5889" width="51.9629" height="3.60853" rx="1.80427" transform="rotate(135 91.332 41.5889)" fill="#C1C1C1"/>
<circle opacity="0.99" cx="69.2416" cy="57.0004" r="16.2742" fill="#F7F8FA" stroke="#6F6F6F" stroke-width="2.3"/>
<path d="M66.8843 56.4116C66.8843 58.3654 65.8661 59.9492 64.6101 59.9492C63.3541 59.9492 62.3359 58.3654 62.3359 56.4116C62.3359 55.4542 64.2129 54.273 64.6101 53.6361C65.0234 52.9732 63.9696 52.874 64.6101 52.874C65.8661 52.874 66.8843 54.4579 66.8843 56.4116Z" fill="#6F6F6F"/>
<path d="M78.2573 56.4116C78.2573 58.3654 77.2391 58.8947 75.9831 58.8947C74.7272 58.8947 73.709 58.3654 73.709 56.4116C73.709 54.4579 74.7272 52.874 75.9831 52.874C77.2391 52.874 78.2573 54.4579 78.2573 56.4116Z" fill="#6F6F6F"/>
<path d="M65.4549 52.4551C65.4549 53.7177 64.6973 55.1066 61.667 55.1066" stroke="#6F6F6F" stroke-width="2" stroke-linecap="round"/>
<path d="M85.9098 58.5156H75.056C74.4847 58.5156 73.9343 58.7308 73.5145 59.1183C71.9942 60.5216 72.9871 63.0611 75.056 63.0611H85.9098C87.165 63.0611 88.1826 62.0435 88.1826 60.7884C88.1826 59.5332 87.165 58.5156 85.9098 58.5156Z" fill="#F7F8FA"/>
<path d="M71.9235 58.5156H85.9083C87.1635 58.5156 88.1811 59.5332 88.1811 60.7884V60.7884C88.1811 62.0435 87.1635 63.0611 85.9084 63.0611H70.7568" stroke="#6F6F6F" stroke-width="2.3" stroke-linecap="round"/>
</svg>
