<svg width="16" height="17" viewBox="0 0 16 17" fill="none" xmlns="http://www.w3.org/2000/svg">
<path fill-rule="evenodd" clip-rule="evenodd" d="M2.32689 4.08169C2.53777 3.73252 3.69967 2.46251 4.52881 2.50085C4.77666 2.52139 4.99576 2.67133 5.17378 2.84523C5.58253 3.24437 6.75264 4.75401 6.81906 5.07168C6.98064 5.85081 6.05222 6.29993 6.33636 7.08522C7.06075 8.85776 8.30892 10.1059 10.0822 10.8295C10.8669 11.1137 11.316 10.1853 12.0952 10.3475C12.4122 10.414 13.9226 11.584 14.3218 11.9927C14.495 12.1701 14.6456 12.3898 14.6661 12.6377C14.697 13.5106 13.3481 14.6889 13.0852 14.8395C12.4649 15.2831 11.6556 15.2756 10.669 14.8169C7.91591 13.6715 3.51617 9.35481 2.34948 6.4978C1.90307 5.5167 1.87226 4.70198 2.32689 4.08169Z" fill="#3994F0"/>
</svg>
