<svg width="24" height="24" viewBox="0 0 24 24" fill="none" xmlns="http://www.w3.org/2000/svg">
<g clip-path="url(#clip0_281_2736)">
<path d="M2.3625 10.6708C4.24891 7.28896 7.8556 5 11.9996 5C16.1435 5 19.7502 7.28896 21.6366 10.6708C22.0972 11.4964 22.0972 12.5029 21.6366 13.3285C19.7502 16.7104 16.1435 18.9993 11.9996 18.9993C7.8556 18.9993 4.24891 16.7104 2.3625 13.3285C1.90196 12.5029 1.90196 11.4964 2.3625 10.6708Z" stroke="#A7AEB4" stroke-width="1.39993"/>
<path d="M12.0004 15.9664C9.81113 15.9664 8.03395 14.1892 8.03395 11.9999C8.03395 9.81064 9.81113 8.03346 12.0004 8.03346C14.1897 8.03346 15.9669 9.81064 15.9669 11.9999C15.9669 14.1892 14.1897 15.9664 12.0004 15.9664Z" stroke="#A7AEB4" stroke-width="1.39993"/>
</g>
<defs>
<clipPath id="clip0_281_2736">
<rect width="24" height="24" fill="white"/>
</clipPath>
</defs>
</svg>
