<svg width="24" height="24" viewBox="0 0 24 24" fill="none" xmlns="http://www.w3.org/2000/svg">
<g clip-path="url(#clip0_1334_3032)">
<path fill-rule="evenodd" clip-rule="evenodd" d="M5.59299 2.43025C5.90758 2.20554 6.34477 2.2784 6.56947 2.59299L19.0695 20.093C19.2942 20.4076 19.2213 20.8448 18.9067 21.0695C18.5921 21.2942 18.155 21.2213 17.9302 20.9067L5.43025 3.40673C5.20554 3.09214 5.2784 2.65495 5.59299 2.43025Z" fill="#535A61"/>
<path fill-rule="evenodd" clip-rule="evenodd" d="M5.59299 2.43025C5.90758 2.20554 6.34477 2.2784 6.56947 2.59299L19.0695 20.093C19.2942 20.4076 19.2213 20.8448 18.9067 21.0695C18.5921 21.2942 18.155 21.2213 17.9302 20.9067L5.43025 3.40673C5.20554 3.09214 5.2784 2.65495 5.59299 2.43025Z" fill="#535A61"/>
<path fill-rule="evenodd" clip-rule="evenodd" d="M8.21494 4.92502C5.45158 5.86838 3.15369 7.81574 1.75146 10.3296C1.17269 11.3672 1.17269 12.6317 1.75146 13.6693C3.75607 17.263 7.59116 19.6991 11.9998 19.6991C14.0731 19.6991 16.0195 19.1603 17.7084 18.2158L16.889 17.0686C15.4335 17.8538 13.7688 18.2991 11.9998 18.2991C8.12055 18.2991 4.74224 16.1572 2.97405 12.9873C2.63174 12.3736 2.63174 11.6252 2.97405 11.0116C4.27832 8.67333 6.45865 6.89445 9.06989 6.12195L8.21494 4.92502ZM18.0751 16.3205C19.2826 15.4391 20.2925 14.3016 21.0256 12.9873C21.3679 12.3736 21.3679 11.6252 21.0256 11.0116C19.2574 7.84164 15.8791 5.69974 11.9998 5.69974C11.5112 5.69974 11.0305 5.73372 10.56 5.79946L9.65636 4.53436C10.4134 4.38056 11.1971 4.2998 11.9998 4.2998C16.4085 4.2998 20.2436 6.73583 22.2482 10.3296C22.827 11.3672 22.827 12.6317 22.2482 13.6693C21.4147 15.1635 20.2648 16.4576 18.8887 17.4597L18.0751 16.3205Z" fill="#535A61"/>
<path fill-rule="evenodd" clip-rule="evenodd" d="M7.33398 12C7.33398 10.0643 8.51452 8.40267 10.1944 7.69629L11.0383 8.87772C9.70448 9.28887 8.73392 10.5321 8.73392 12C8.73392 13.8027 10.1977 15.2665 12.0004 15.2665C13.085 15.2665 14.047 14.7366 14.6412 13.9218L15.4849 15.1029C14.63 16.0621 13.3854 16.6664 12.0004 16.6664C9.42455 16.6664 7.33398 14.5758 7.33398 12Z" fill="#535A61"/>
</g>
<defs>
<clipPath id="clip0_1334_3032">
<rect width="24" height="24" fill="white"/>
</clipPath>
</defs>
</svg>
