<svg width="12" height="15" viewBox="0 0 12 15" fill="none" xmlns="http://www.w3.org/2000/svg">
<path fill-rule="evenodd" clip-rule="evenodd" d="M6.40379 14.2626C7.64401 13.1606 11.3117 9.59096 11.3117 5.91267C11.3117 2.97889 8.93337 0.600586 5.99958 0.600586C3.0658 0.600586 0.6875 2.97889 0.6875 5.91267C0.6875 9.59096 4.35516 13.1606 5.59538 14.2626C5.82931 14.4704 6.16986 14.4704 6.40379 14.2626ZM5.9988 7.76128C7.01965 7.76128 7.84722 6.93372 7.84722 5.91287C7.84722 4.89202 7.01965 4.06445 5.9988 4.06445C4.97795 4.06445 4.15039 4.89202 4.15039 5.91287C4.15039 6.93372 4.97795 7.76128 5.9988 7.76128Z" fill="#3994F0"/>
</svg>
