<svg width="17" height="16" viewBox="0 0 17 16" fill="none" xmlns="http://www.w3.org/2000/svg">
<path fill-rule="evenodd" clip-rule="evenodd" d="M8.42918 14.7626C9.6694 13.6606 13.3371 10.091 13.3371 6.41267C13.3371 3.47889 10.9588 1.10059 8.02497 1.10059C5.09119 1.10059 2.71289 3.47889 2.71289 6.41267C2.71289 10.091 6.38055 13.6606 7.62077 14.7626C7.8547 14.9704 8.19525 14.9704 8.42918 14.7626ZM8.02419 8.26128C9.04504 8.26128 9.87261 7.43372 9.87261 6.41287C9.87261 5.39202 9.04504 4.56445 8.02419 4.56445C7.00334 4.56445 6.17578 5.39202 6.17578 6.41287C6.17578 7.43372 7.00334 8.26128 8.02419 8.26128Z" fill="#CACED3"/>
</svg>
