<svg width="24" height="24" viewBox="0 0 24 24" fill="none" xmlns="http://www.w3.org/2000/svg">
<rect x="4" y="8" width="16" height="14" rx="2" stroke="#A7AEB4" stroke-width="1.5"/>
<path d="M16 8V6C16 3.79086 14.2091 2 12 2V2C9.79086 2 8 3.79086 8 6V8" stroke="#A7AEB4" stroke-width="1.5"/>
<path d="M12.2892 15.0605C12.2116 14.9983 12.1154 14.9648 12.0145 14.9648C11.9136 14.9648 11.8133 14.9983 11.7282 15.0605C11.1167 15.5065 9.77129 16.6233 9.87909 17.7453C9.99002 18.8979 11.3838 18.9398 11.812 18.2838C12.1602 18.9402 13.5591 18.8979 13.8107 17.7453C14.0561 16.6233 12.8462 15.5065 12.2892 15.0605Z" fill="#A7AEB4"/>
<path d="M10.1486 15.4964C10.5327 15.4964 10.8665 15.1273 10.8943 14.672C10.9221 14.2167 10.6333 13.8477 10.2492 13.8477C9.86508 13.8477 9.53119 14.2167 9.5034 14.672C9.47562 15.1273 9.76446 15.4964 10.1486 15.4964Z" fill="#A7AEB4"/>
<path d="M12.007 14.5501C12.391 14.5501 12.7249 14.181 12.7527 13.7257C12.7805 13.2705 12.4917 12.9014 12.1076 12.9014C11.7235 12.9014 11.3896 13.2705 11.3618 13.7257C11.334 14.181 11.6229 14.5501 12.007 14.5501Z" fill="#A7AEB4"/>
<path d="M13.7501 15.4964C14.1342 15.4964 14.4681 15.1273 14.4959 14.672C14.5237 14.2167 14.2348 13.8477 13.8507 13.8477C13.4666 13.8477 13.1327 14.2167 13.105 14.672C13.0772 15.1273 13.366 15.4964 13.7501 15.4964Z" fill="#A7AEB4"/>
</svg>
