<svg width="25" height="24" viewBox="0 0 25 24" fill="none" xmlns="http://www.w3.org/2000/svg">
<path d="M5.45351 8.99881C5.45351 5.13348 8.58699 2 12.4523 2V2C16.3177 2 19.4511 5.13348 19.4511 8.99881V12.5882V14.1177C19.4511 14.6452 19.6595 15.1513 20.0309 15.5259L21.9368 17.4481C22.3123 17.8269 22.044 18.4706 21.5107 18.4706H3.39393C2.86062 18.4706 2.59237 17.8269 2.96786 17.4481L4.87375 15.5259C5.24513 15.1513 5.45351 14.6452 5.45351 14.1177V12.5882V8.99881Z" stroke="#535A61" stroke-width="1.5"/>
<path d="M15.9519 18.4707C15.9519 20.4199 14.3852 22.0001 12.4525 22.0001C10.5199 22.0001 8.95312 20.4199 8.95312 18.4707" stroke="#535A61" stroke-width="1.5"/>
</svg>
