<svg width="25" height="24" viewBox="0 0 25 24" fill="none" xmlns="http://www.w3.org/2000/svg">
<g clip-path="url(#clip0_250_2612)">
<path d="M5.45318 8.99913C5.45318 5.13362 8.58679 2 12.4523 2V2C16.3178 2 19.4514 5.13362 19.4514 8.99913V12.5882V14.1177C19.4514 14.6452 19.6598 15.1513 20.0312 15.5259L21.9372 17.4481C22.3127 17.8268 22.0444 18.4706 21.5111 18.4706H3.39349C2.86017 18.4706 2.59192 17.8268 2.96743 17.4481L4.87338 15.5259C5.24479 15.1513 5.45318 14.6452 5.45318 14.1177V12.5882V8.99913Z" stroke="#535A61" stroke-width="1.5"/>
<path d="M15.9518 18.4707C15.9518 20.4199 14.385 22.0001 12.4522 22.0001C10.5194 22.0001 8.95264 20.4199 8.95264 18.4707" stroke="#535A61" stroke-width="1.5"/>
<circle cx="19.4521" cy="6" r="5" fill="#FF7676"/>
</g>
<defs>
<clipPath id="clip0_250_2612">
<rect width="24" height="24" fill="white" transform="translate(0.452148)"/>
</clipPath>
</defs>
</svg>
