<svg width="24" height="24" viewBox="0 0 24 24" fill="none" xmlns="http://www.w3.org/2000/svg">
<path fill-rule="evenodd" clip-rule="evenodd" d="M7.07268 14.9676L2.56142 12.8855C1.81222 12.5397 1.78057 11.4865 2.50766 11.0964L20.4984 1.44285C21.1947 1.06922 22.0288 1.61281 21.9682 2.40071L20.6531 19.498C20.6002 20.1853 19.8842 20.6142 19.2533 20.3366L14.7618 18.3604C14.334 18.1721 13.8328 18.3054 13.5549 18.6813L10.8832 22.296C10.3769 22.981 9.30073 22.7598 9.10564 21.9306L7.62704 15.6466C7.55655 15.347 7.35208 15.0966 7.07268 14.9676ZM11.3622 15.2713L11.4343 15.3073C11.8776 15.529 12.4165 15.3924 12.7007 14.9863L15.8542 10.4813L18.1926 7.14083C18.3327 6.94066 18.0601 6.71194 17.8873 6.88472L11.1023 13.6697C10.6197 14.1524 10.7517 14.966 11.3622 15.2713Z" fill="#3994F0"/>
</svg>
