<svg width="172" height="142" viewBox="0 0 172 142" fill="none" xmlns="http://www.w3.org/2000/svg">
<path d="M152 71C152 107.451 122.451 137 86 137C49.5492 137 20 107.451 20 71C20 34.5492 49.5492 5 86 5C122.451 5 152 34.5492 152 71Z" fill="#D9F1FF"/>
<path d="M127 71C127 93.6437 108.644 112 86 112C63.3563 112 45 93.6437 45 71C45 48.3563 63.3563 30 86 30C108.644 30 127 48.3563 127 71Z" fill="#3994F0"/>
<circle cx="164" cy="82" r="3" fill="#54B0E5"/>
<circle cx="6.5" cy="66.5" r="1.5" fill="#54B1E5"/>
<circle cx="41" cy="40" r="5" fill="#54B1E5"/>
<circle cx="27" cy="91" r="4.45647" stroke="#88D4FF" stroke-width="3.08707"/>
<circle cx="149" cy="53" r="5.45647" stroke="#88D4FF" stroke-width="3.08707"/>
<path d="M60 71.3333L77.7902 90L108 55" stroke="white" stroke-width="6" stroke-linecap="round" stroke-linejoin="round"/>
</svg>
