<svg width="30" height="32" viewBox="0 0 30 32" fill="none" xmlns="http://www.w3.org/2000/svg">
<path d="M10.0151 17.1808C10.0151 21.6365 2.8652 29.1853 2.8652 30.7396H1V10.5333L14.7818 1L28.4599 10.5333V30.7396H21.8281M13.1238 11.3622C12.2948 12.1912 13.4347 15.0926 13.1238 16.4397C12.8129 17.7868 12.813 18.7194 10.7405 17.5796C8.66806 16.4397 7.0101 15.6108 7.32096 13.9528C7.63183 12.2948 10.326 8.35719 15.5071 8.04632C18.2013 8.04632 20.3774 10.5333 20.8955 10.5333C21.4136 10.5333 24.0042 10.2224 24.2114 10.5333C24.4187 10.8441 24.6259 13.0202 23.6933 13.9528C22.7607 14.8854 20.1638 16.4397 18.823 18.4086C18.1599 19.2375 17.749 20.1356 17.6265 20.481M17.6265 20.481C19.1189 21.5794 20.6437 23.5102 21.4136 26.0766C21.911 27.7346 21.8972 29.8761 21.8281 30.7396M17.6265 20.481C16.7086 19.8055 15.8029 19.4448 15.0926 19.4448V21.1027C14.6091 21.1373 13.4761 21.4343 12.8129 22.3462C11.984 23.4861 12.6057 23.9005 12.2948 24.0042C11.984 24.1078 11.2586 24.315 11.155 24.7295C11.0514 25.144 10.8441 27.2165 13.6419 27.8382V30.7396H21.8281" stroke="#3994F0" stroke-width="2" stroke-linecap="round" stroke-linejoin="round"/>
<circle cx="17.5789" cy="11.9837" r="0.725357" fill="#3994F0"/>
<ellipse cx="14.5739" cy="24.3151" rx="0.621734" ry="0.621734" fill="#3994F0"/>
</svg>
