<svg width="25" height="24" viewBox="0 0 25 24" fill="none" xmlns="http://www.w3.org/2000/svg">
<circle cx="12.6565" cy="6.95921" r="4.11741" stroke="#535A61" stroke-width="1.5"/>
<path d="M20.447 19.1766L19.7188 19.3564L20.447 19.1766ZM12.452 13.6729C15.964 13.6729 18.9127 16.0924 19.7188 19.3564L21.1751 18.9968C20.2075 15.0787 16.67 12.1729 12.452 12.1729V13.6729ZM5.18514 19.3564C5.99126 16.0924 8.94 13.6729 12.452 13.6729V12.1729C8.23397 12.1729 4.69652 15.0787 3.7289 18.9968L5.18514 19.3564ZM6.21716 21.9077H18.6868V20.4077H6.21716V21.9077ZM3.7289 18.9968C3.31591 20.669 4.76528 21.9077 6.21716 21.9077V20.4077C5.45991 20.4077 5.06846 19.8289 5.18514 19.3564L3.7289 18.9968ZM19.7188 19.3564C19.8355 19.8289 19.4441 20.4077 18.6868 20.4077V21.9077C20.1387 21.9077 21.5881 20.669 21.1751 18.9968L19.7188 19.3564Z" fill="#535A61"/>
</svg>
