<svg width="24" height="24" viewBox="0 0 24 24" fill="none" xmlns="http://www.w3.org/2000/svg">
<circle cx="12.0003" cy="12.0003" r="9.4109" stroke="#535A61" stroke-width="1.5"/>
<path d="M12.5 14.3945C12.276 14.4935 12.0339 14.543 11.7734 14.543C11.3464 14.543 11.0234 14.4831 10.8047 14.3633C10.7839 14.2018 10.7734 13.9935 10.7734 13.7383C10.7734 13.4831 10.8229 13.2201 10.9219 12.9492C11.0208 12.6732 11.1484 12.444 11.3047 12.2617C11.4661 12.0742 11.6432 11.8997 11.8359 11.7383C12.0286 11.5768 12.2214 11.4154 12.4141 11.2539C12.6068 11.0924 12.7839 10.9206 12.9453 10.7383C13.2995 10.3268 13.4766 9.79818 13.4766 9.15234C13.4766 8.50651 13.3255 8.00651 13.0234 7.65234C12.7266 7.29818 12.3203 7.12109 11.8047 7.12109C11.2943 7.12109 10.888 7.27734 10.5859 7.58984C10.2891 7.90234 10.1406 8.28255 10.1406 8.73047C10.1406 9.17318 10.2708 9.58464 10.5312 9.96484C10.4479 10.2201 10.237 10.4049 9.89844 10.5195C9.77344 10.5664 9.63802 10.5898 9.49219 10.5898C8.53385 10.5794 8.05208 10.0482 8.04688 8.99609C8.04688 8.1888 8.32552 7.54297 8.88281 7.05859C9.63802 6.40234 10.625 6.07422 11.8438 6.07422C14.5833 6.07422 15.9531 7.10026 15.9531 9.15234C15.9531 10.0951 15.724 10.832 15.2656 11.3633C14.9375 11.7487 14.5599 12.0768 14.1328 12.3477C13.7057 12.6133 13.3906 12.8268 13.1875 12.9883C12.7292 13.3633 12.5 13.832 12.5 14.3945ZM10.3438 16.793C10.3438 16.4492 10.4818 16.1419 10.7578 15.8711C11.0391 15.6003 11.349 15.4648 11.6875 15.4648C12.026 15.4648 12.3021 15.5664 12.5156 15.7695C12.7344 15.9727 12.8438 16.2539 12.8438 16.6133C12.8438 16.9727 12.6849 17.306 12.3672 17.6133C12.1276 17.8216 11.8438 17.9258 11.5156 17.9258C11.1875 17.9258 10.9089 17.8216 10.6797 17.6133C10.4557 17.4102 10.3438 17.1367 10.3438 16.793Z" fill="#535A61"/>
</svg>
