<svg width="32" height="32" viewBox="0 0 32 32" fill="none" xmlns="http://www.w3.org/2000/svg">
<path d="M1.81543 28.0221V8.34155L5.00687 7.27773L9.79403 1.42676L20.9641 7.80964H27.347V28.0221H1.81543Z" fill="#FFF0D9"/>
<path d="M5.59521 8.30219L8.47388 3.01774C8.72595 2.555 8.85198 2.32364 9.0386 2.19015C9.20289 2.07263 9.39892 2.00762 9.60089 2.00368C9.83028 1.99921 10.0696 2.10942 10.5482 2.32983L23.5669 8.32525" stroke="#535A61" stroke-width="2" stroke-linecap="round" stroke-linejoin="round"/>
<path d="M27.3507 14.6436V10.7252C27.3507 9.88512 27.3507 9.46508 27.1872 9.14421C27.0434 8.86197 26.814 8.6325 26.5317 8.48869C26.2109 8.3252 25.7908 8.3252 24.9507 8.3252H4.21201C3.37193 8.3252 2.95189 8.3252 2.63103 8.48869C2.34878 8.6325 2.11931 8.86197 1.9755 9.14421C1.81201 9.46508 1.81201 9.88512 1.81201 10.7252V25.7886C1.81201 26.6287 1.81201 27.0488 1.9755 27.3696C2.11931 27.6519 2.34878 27.8813 2.63103 28.0252C2.95189 28.1886 3.37193 28.1886 4.21201 28.1886H24.9507C25.7908 28.1886 26.2109 28.1886 26.5317 28.0252C26.814 27.8813 27.0434 27.6519 27.1872 27.3696C27.3507 27.0488 27.3507 26.6287 27.3507 25.7887V21.6829" stroke="#535A61" stroke-width="2"/>
<path d="M18.8374 17.3106C18.8374 15.4822 20.3196 14 22.148 14H29.3879C29.668 14 29.808 14 29.9149 14.0545C30.009 14.1024 30.0855 14.1789 30.1335 14.273C30.1879 14.38 30.1879 14.52 30.1879 14.8V19.8212C30.1879 20.1012 30.1879 20.2412 30.1335 20.3481C30.0855 20.4422 30.009 20.5187 29.9149 20.5667C29.808 20.6212 29.668 20.6212 29.3879 20.6212H22.148C20.3196 20.6212 18.8374 19.139 18.8374 17.3106Z" fill="#FAD8A5" stroke="#535A61" stroke-width="2"/>
<path d="M4.64941 12.1084H11.2706" stroke="#535A61" stroke-width="2" stroke-linecap="round" stroke-linejoin="round"/>
</svg>
