<svg width="32" height="32" viewBox="0 0 32 32" fill="none" xmlns="http://www.w3.org/2000/svg">
<g clip-path="url(#clip0_257_3222)">
<path d="M26.9208 14.1454C26.9208 17.6635 25.4767 20.8461 23.1461 23.1384C20.8502 25.3965 17.6939 26.7908 14.2104 26.7908C7.19063 26.7908 1.5 21.1292 1.5 14.1454C1.5 7.16153 7.19063 1.5 14.2104 1.5C21.2301 1.5 26.9208 7.16153 26.9208 14.1454Z" fill="#B0CCD3"/>
<path d="M30.5 30.5L23.1461 23.1384M23.1461 23.1384C25.4767 20.8461 26.9208 17.6635 26.9208 14.1454C26.9208 7.16153 21.2301 1.5 14.2104 1.5C7.19063 1.5 1.5 7.16153 1.5 14.1454C1.5 21.1292 7.19063 26.7908 14.2104 26.7908C17.6939 26.7908 20.8502 25.3965 23.1461 23.1384Z" stroke="#535A61" stroke-width="2" stroke-linecap="round"/>
</g>
<defs>
<clipPath id="clip0_257_3222">
<rect width="32" height="32" fill="white"/>
</clipPath>
</defs>
</svg>
