<svg width="32" height="32" viewBox="0 0 32 32" fill="none" xmlns="http://www.w3.org/2000/svg">
<path d="M15.27 5.87704C15.4591 6.079 15.7233 6.19361 16 6.19361C16.2767 6.19361 16.5409 6.079 16.73 5.87704C17.7767 4.75897 19.5786 3.5 22.3664 3.5C27.2161 3.5 30.5 7.67164 30.5 11.5546C30.5 13.5859 29.7272 15.6641 28.4627 17.6789C27.2008 19.6895 25.4852 21.5791 23.6939 23.2122C21.905 24.8431 20.0659 26.1953 18.5817 27.1351C17.8388 27.6056 17.1968 27.9651 16.7042 28.2028C16.457 28.3221 16.2608 28.4042 16.1168 28.4543C16.0638 28.4728 16.0255 28.4841 16 28.4911C15.9745 28.4841 15.9362 28.4728 15.8832 28.4543C15.7392 28.4042 15.543 28.3221 15.2958 28.2028C14.8032 27.9651 14.1612 27.6056 13.4183 27.1351C11.9341 26.1953 10.095 24.8431 8.30614 23.2122C6.51481 21.5791 4.79918 19.6895 3.53729 17.6789C2.27283 15.6641 1.5 13.5859 1.5 11.5546C1.5 7.67198 4.78805 3.5 9.63361 3.5C12.4214 3.5 14.2233 4.75897 15.27 5.87704Z" fill="#FFA2A2" stroke="#535A61" stroke-width="2" stroke-linecap="round" stroke-linejoin="round"/>
</svg>
