<svg width="120" height="120" viewBox="0 0 120 120" fill="none" xmlns="http://www.w3.org/2000/svg">
<path d="M47.9811 63.2475C47.9811 74.606 29.7547 93.8491 29.7547 97.8113H25V50.4955C25 47.8692 26.289 45.4102 28.4489 43.9162L55.5638 25.16C58.3107 23.2599 61.949 23.2663 64.6892 25.1762L91.5743 43.9143C93.7207 45.4103 95 47.8612 95 50.4775V97.8113H78.0943M55.9057 48.4151C53.7924 50.5283 56.6981 57.9245 55.9057 61.3585C55.1132 64.7925 55.1132 67.1698 49.8302 64.2642C44.5472 61.3585 40.3208 59.2453 41.1132 55.0189C41.9057 50.7925 48.7736 40.7547 61.9811 39.9623C68.8491 39.9623 74.3962 46.3019 75.717 46.3019C77.0377 46.3019 83.6415 45.5094 84.1698 46.3019C84.6981 47.0943 85.2264 52.6415 82.8491 55.0189C80.4717 57.3962 73.8517 61.3585 70.434 66.3774C68.7434 68.4906 67.6961 70.7799 67.3838 71.6604M67.3838 71.6604C71.1882 74.4603 75.075 79.3823 77.0377 85.9245C78.3057 90.1509 78.2704 95.6101 78.0943 97.8113M67.3838 71.6604C65.0439 69.9383 62.7352 69.0189 60.9245 69.0189V73.2453C59.6918 73.3333 56.8038 74.0906 55.1132 76.4151C53 79.3208 54.5849 80.3774 53.7924 80.6415C53 80.9057 51.1509 81.434 50.8868 82.4906C50.6226 83.5472 50.0943 88.8302 57.2264 90.4151V97.8113H78.0943" stroke="#E8EBEE" stroke-width="5.09834" stroke-linecap="round" stroke-linejoin="round"/>
<circle cx="67.2631" cy="49.9994" r="1.84906" fill="#E8EBEE"/>
<ellipse cx="59.6025" cy="81.434" rx="1.58491" ry="1.58491" fill="#E8EBEE"/>
</svg>
